<svg width="1007" height="950" viewBox="0 0 1007 966" fill="none" xmlns="http://www.w3.org/2000/svg">
    <ellipse cx="528.747" cy="544.5" rx="476.545" ry="421.5" fill="url(#paint0_radial_59_6)" />
    <ellipse cx="602.455" cy="421.5" rx="476.545" ry="421.5" fill="url(#paint1_radial_59_6)" />
    <ellipse opacity="0.9" cx="246.71" cy="489" rx="246.718" ry="241" fill="#FFD301" />
    <ellipse cx="671.557" cy="391" rx="246.718" ry="241" fill="#0047AC" />
    <ellipse cx="629.584" cy="691" rx="246.718" ry="241" fill="#FFB921" />
    <path
        d="M628.056 262.53C632.153 266.114 632.484 272.195 628.801 276.182L599.004 308.398C597.183 310.371 594.617 311.539 591.886 311.579C589.154 311.62 586.547 310.613 584.602 308.76L568.007 292.652C564.158 288.867 564.158 282.746 568.007 278.961C571.856 275.175 578.187 275.175 582.036 278.961L591.182 287.86L613.985 263.215C617.669 259.228 623.918 258.906 628.015 262.49L628.056 262.53ZM628.056 326.962C632.153 330.546 632.484 336.627 628.801 340.614L599.004 372.83C597.183 374.803 594.617 375.971 591.886 376.011C589.154 376.051 586.547 375.045 584.602 373.192L568.007 357.084C564.117 353.299 564.117 347.178 568.007 343.433C571.897 339.688 578.187 339.647 582.036 343.433L591.182 352.332L613.985 327.687C617.669 323.701 623.918 323.378 628.015 326.962H628.056ZM657.812 285.806C657.812 278.679 663.73 272.92 671.055 272.92H763.757C771.083 272.92 777.001 278.679 777.001 285.806C777.001 292.934 771.083 298.693 763.757 298.693H671.055C663.73 298.693 657.812 292.934 657.812 285.806ZM657.812 350.238C657.812 343.111 663.73 337.352 671.055 337.352H763.757C771.083 337.352 777.001 343.111 777.001 350.238C777.001 357.366 771.083 363.125 763.757 363.125H671.055C663.73 363.125 657.812 357.366 657.812 350.238ZM631.326 414.67C631.326 407.543 637.244 401.784 644.569 401.784H763.757C771.083 401.784 777.001 407.543 777.001 414.67C777.001 421.798 771.083 427.557 763.757 427.557H644.569C637.244 427.557 631.326 421.798 631.326 414.67ZM584.975 395.341C590.243 395.341 595.296 397.377 599.021 401.002C602.746 404.627 604.839 409.544 604.839 414.67C604.839 419.797 602.746 424.714 599.021 428.339C595.296 431.964 590.243 434 584.975 434C579.706 434 574.653 431.964 570.928 428.339C567.203 424.714 565.11 419.797 565.11 414.67C565.11 409.544 567.203 404.627 570.928 401.002C574.653 397.377 579.706 395.341 584.975 395.341Z"
        fill="#FFD301" />
    <path
        d="M547.241 240.288C545.321 240.288 543.603 239.904 542.089 239.136C540.595 238.368 539.422 237.312 538.569 235.968C537.715 234.603 537.289 233.045 537.289 231.296C537.289 229.547 537.715 228 538.569 226.656C539.422 225.312 540.595 224.267 542.089 223.52C543.603 222.752 545.321 222.368 547.241 222.368C549.203 222.368 550.899 222.784 552.329 223.616C553.758 224.448 554.771 225.621 555.369 227.136L550.665 229.536C550.259 228.725 549.758 228.139 549.161 227.776C548.563 227.392 547.913 227.2 547.209 227.2C546.505 227.2 545.865 227.36 545.289 227.68C544.713 228 544.254 228.469 543.913 229.088C543.593 229.685 543.433 230.421 543.433 231.296C543.433 232.192 543.593 232.949 543.913 233.568C544.254 234.187 544.713 234.656 545.289 234.976C545.865 235.296 546.505 235.456 547.209 235.456C547.913 235.456 548.563 235.275 549.161 234.912C549.758 234.528 550.259 233.931 550.665 233.12L555.369 235.52C554.771 237.035 553.758 238.208 552.329 239.04C550.899 239.872 549.203 240.288 547.241 240.288ZM557.658 240V222.656H563.45V227.712L562.586 226.272C563.098 224.971 563.93 224 565.082 223.36C566.234 222.699 567.631 222.368 569.274 222.368V227.84C568.997 227.797 568.751 227.776 568.538 227.776C568.346 227.755 568.133 227.744 567.898 227.744C566.661 227.744 565.658 228.085 564.89 228.768C564.122 229.429 563.738 230.517 563.738 232.032V240H557.658ZM580.715 240.288C578.667 240.288 576.875 239.904 575.339 239.136C573.824 238.347 572.64 237.28 571.787 235.936C570.955 234.571 570.539 233.024 570.539 231.296C570.539 229.568 570.944 228.032 571.755 226.688C572.587 225.323 573.728 224.267 575.179 223.52C576.629 222.752 578.261 222.368 580.075 222.368C581.781 222.368 583.339 222.72 584.747 223.424C586.155 224.107 587.275 225.12 588.107 226.464C588.939 227.808 589.355 229.44 589.355 231.36C589.355 231.573 589.344 231.819 589.323 232.096C589.301 232.373 589.28 232.629 589.259 232.864H575.531V229.664H586.027L583.723 230.56C583.744 229.771 583.595 229.088 583.275 228.512C582.976 227.936 582.549 227.488 581.995 227.168C581.461 226.848 580.832 226.688 580.107 226.688C579.381 226.688 578.741 226.848 578.187 227.168C577.653 227.488 577.237 227.947 576.939 228.544C576.64 229.12 576.491 229.803 576.491 230.592V231.52C576.491 232.373 576.661 233.109 577.003 233.728C577.365 234.347 577.877 234.827 578.539 235.168C579.2 235.488 579.989 235.648 580.907 235.648C581.76 235.648 582.485 235.531 583.083 235.296C583.701 235.04 584.309 234.656 584.907 234.144L588.107 237.472C587.275 238.389 586.251 239.093 585.035 239.584C583.819 240.053 582.379 240.288 580.715 240.288ZM576.811 220.576L581.099 215.712H587.179L581.163 220.576H576.811ZM601.246 240.288C599.198 240.288 597.406 239.904 595.87 239.136C594.355 238.347 593.171 237.28 592.318 235.936C591.486 234.571 591.07 233.024 591.07 231.296C591.07 229.568 591.475 228.032 592.286 226.688C593.118 225.323 594.259 224.267 595.71 223.52C597.161 222.752 598.793 222.368 600.606 222.368C602.313 222.368 603.87 222.72 605.278 223.424C606.686 224.107 607.806 225.12 608.638 226.464C609.47 227.808 609.886 229.44 609.886 231.36C609.886 231.573 609.875 231.819 609.854 232.096C609.833 232.373 609.811 232.629 609.79 232.864H596.062V229.664H606.558L604.254 230.56C604.275 229.771 604.126 229.088 603.806 228.512C603.507 227.936 603.081 227.488 602.526 227.168C601.993 226.848 601.363 226.688 600.638 226.688C599.913 226.688 599.273 226.848 598.718 227.168C598.185 227.488 597.769 227.947 597.47 228.544C597.171 229.12 597.022 229.803 597.022 230.592V231.52C597.022 232.373 597.193 233.109 597.534 233.728C597.897 234.347 598.409 234.827 599.07 235.168C599.731 235.488 600.521 235.648 601.438 235.648C602.291 235.648 603.017 235.531 603.614 235.296C604.233 235.04 604.841 234.656 605.438 234.144L608.638 237.472C607.806 238.389 606.782 239.093 605.566 239.584C604.35 240.053 602.91 240.288 601.246 240.288ZM612.689 240V222.656H618.481V227.712L617.617 226.272C618.129 224.971 618.961 224 620.113 223.36C621.265 222.699 622.663 222.368 624.305 222.368V227.84C624.028 227.797 623.783 227.776 623.569 227.776C623.377 227.755 623.164 227.744 622.929 227.744C621.692 227.744 620.689 228.085 619.921 228.768C619.153 229.429 618.769 230.517 618.769 232.032V240H612.689ZM643.485 240.288C642.077 240.288 640.808 240.011 639.677 239.456C638.568 238.901 637.693 238.037 637.053 236.864C636.435 235.669 636.125 234.165 636.125 232.352V222.656H642.205V231.36C642.205 232.704 642.451 233.664 642.941 234.24C643.453 234.816 644.168 235.104 645.085 235.104C645.683 235.104 646.227 234.965 646.717 234.688C647.208 234.411 647.603 233.973 647.901 233.376C648.2 232.757 648.349 231.968 648.349 231.008V222.656H654.429V240H648.637V235.104L649.757 236.48C649.16 237.76 648.296 238.72 647.165 239.36C646.035 239.979 644.808 240.288 643.485 240.288ZM669.642 222.368C670.986 222.368 672.202 222.645 673.29 223.2C674.378 223.733 675.231 224.565 675.85 225.696C676.49 226.827 676.81 228.288 676.81 230.08V240H670.73V231.072C670.73 229.835 670.474 228.939 669.962 228.384C669.471 227.808 668.778 227.52 667.882 227.52C667.242 227.52 666.655 227.669 666.122 227.968C665.588 228.245 665.172 228.683 664.874 229.28C664.575 229.877 664.426 230.656 664.426 231.616V240H658.346V222.656H664.138V227.584L663.018 226.144C663.679 224.885 664.586 223.947 665.738 223.328C666.89 222.688 668.191 222.368 669.642 222.368ZM689.934 240.288C687.886 240.288 686.094 239.904 684.558 239.136C683.043 238.347 681.859 237.28 681.006 235.936C680.174 234.571 679.758 233.024 679.758 231.296C679.758 229.568 680.163 228.032 680.974 226.688C681.806 225.323 682.947 224.267 684.398 223.52C685.848 222.752 687.48 222.368 689.294 222.368C691 222.368 692.558 222.72 693.966 223.424C695.374 224.107 696.494 225.12 697.326 226.464C698.158 227.808 698.574 229.44 698.574 231.36C698.574 231.573 698.563 231.819 698.542 232.096C698.52 232.373 698.499 232.629 698.478 232.864H684.75V229.664H695.246L692.942 230.56C692.963 229.771 692.814 229.088 692.494 228.512C692.195 227.936 691.768 227.488 691.214 227.168C690.68 226.848 690.051 226.688 689.326 226.688C688.6 226.688 687.96 226.848 687.406 227.168C686.872 227.488 686.456 227.947 686.158 228.544C685.859 229.12 685.71 229.803 685.71 230.592V231.52C685.71 232.373 685.88 233.109 686.222 233.728C686.584 234.347 687.096 234.827 687.758 235.168C688.419 235.488 689.208 235.648 690.126 235.648C690.979 235.648 691.704 235.531 692.302 235.296C692.92 235.04 693.528 234.656 694.126 234.144L697.326 237.472C696.494 238.389 695.47 239.093 694.254 239.584C693.038 240.053 691.598 240.288 689.934 240.288ZM718.433 240.288C716.215 240.288 714.487 239.744 713.249 238.656C712.012 237.547 711.393 235.883 711.393 233.664V218.784H717.473V233.6C717.473 234.219 717.644 234.709 717.985 235.072C718.327 235.413 718.764 235.584 719.297 235.584C720.023 235.584 720.641 235.403 721.153 235.04L722.657 239.296C722.145 239.637 721.516 239.883 720.769 240.032C720.023 240.203 719.244 240.288 718.433 240.288ZM708.865 227.84V223.296H721.441V227.84H708.865ZM735.594 240V236.768L735.178 235.968V230.016C735.178 229.056 734.879 228.32 734.282 227.808C733.706 227.275 732.778 227.008 731.498 227.008C730.666 227.008 729.823 227.147 728.97 227.424C728.116 227.68 727.391 228.043 726.794 228.512L724.746 224.384C725.727 223.744 726.9 223.253 728.266 222.912C729.652 222.549 731.028 222.368 732.394 222.368C735.21 222.368 737.386 223.019 738.922 224.32C740.479 225.6 741.258 227.616 741.258 230.368V240H735.594ZM730.474 240.288C729.087 240.288 727.914 240.053 726.954 239.584C725.994 239.115 725.258 238.475 724.746 237.664C724.255 236.853 724.01 235.947 724.01 234.944C724.01 233.877 724.276 232.96 724.81 232.192C725.364 231.403 726.207 230.805 727.338 230.4C728.468 229.973 729.93 229.76 731.722 229.76H735.818V232.928H732.554C731.572 232.928 730.879 233.088 730.474 233.408C730.09 233.728 729.898 234.155 729.898 234.688C729.898 235.221 730.1 235.648 730.506 235.968C730.911 236.288 731.466 236.448 732.17 236.448C732.831 236.448 733.428 236.288 733.962 235.968C734.516 235.627 734.922 235.115 735.178 234.432L736.01 236.672C735.69 237.867 735.06 238.773 734.122 239.392C733.204 239.989 731.988 240.288 730.474 240.288ZM754.178 240.288C752.258 240.288 750.541 239.904 749.026 239.136C747.533 238.368 746.36 237.312 745.506 235.968C744.653 234.603 744.226 233.045 744.226 231.296C744.226 229.547 744.653 228 745.506 226.656C746.36 225.312 747.533 224.267 749.026 223.52C750.541 222.752 752.258 222.368 754.178 222.368C756.141 222.368 757.837 222.784 759.266 223.616C760.696 224.448 761.709 225.621 762.306 227.136L757.602 229.536C757.197 228.725 756.696 228.139 756.098 227.776C755.501 227.392 754.85 227.2 754.146 227.2C753.442 227.2 752.802 227.36 752.226 227.68C751.65 228 751.192 228.469 750.85 229.088C750.53 229.685 750.37 230.421 750.37 231.296C750.37 232.192 750.53 232.949 750.85 233.568C751.192 234.187 751.65 234.656 752.226 234.976C752.802 235.296 753.442 235.456 754.146 235.456C754.85 235.456 755.501 235.275 756.098 234.912C756.696 234.528 757.197 233.931 757.602 233.12L762.306 235.52C761.709 237.035 760.696 238.208 759.266 239.04C757.837 239.872 756.141 240.288 754.178 240.288ZM775.829 222.368C777.173 222.368 778.389 222.645 779.477 223.2C780.565 223.733 781.418 224.565 782.037 225.696C782.677 226.827 782.997 228.288 782.997 230.08V240H776.917V231.072C776.917 229.835 776.661 228.939 776.149 228.384C775.658 227.808 774.965 227.52 774.069 227.52C773.429 227.52 772.842 227.669 772.309 227.968C771.776 228.245 771.36 228.683 771.061 229.28C770.762 229.877 770.613 230.656 770.613 231.616V240H764.533V216.256H770.613V227.584L769.205 226.144C769.866 224.885 770.773 223.947 771.925 223.328C773.077 222.688 774.378 222.368 775.829 222.368ZM796.121 240.288C794.073 240.288 792.281 239.904 790.745 239.136C789.23 238.347 788.046 237.28 787.193 235.936C786.361 234.571 785.945 233.024 785.945 231.296C785.945 229.568 786.35 228.032 787.161 226.688C787.993 225.323 789.134 224.267 790.585 223.52C792.036 222.752 793.668 222.368 795.481 222.368C797.188 222.368 798.745 222.72 800.153 223.424C801.561 224.107 802.681 225.12 803.513 226.464C804.345 227.808 804.761 229.44 804.761 231.36C804.761 231.573 804.75 231.819 804.729 232.096C804.708 232.373 804.686 232.629 804.665 232.864H790.937V229.664H801.433L799.129 230.56C799.15 229.771 799.001 229.088 798.681 228.512C798.382 227.936 797.956 227.488 797.401 227.168C796.868 226.848 796.238 226.688 795.513 226.688C794.788 226.688 794.148 226.848 793.593 227.168C793.06 227.488 792.644 227.947 792.345 228.544C792.046 229.12 791.897 229.803 791.897 230.592V231.52C791.897 232.373 792.068 233.109 792.409 233.728C792.772 234.347 793.284 234.827 793.945 235.168C794.606 235.488 795.396 235.648 796.313 235.648C797.166 235.648 797.892 235.531 798.489 235.296C799.108 235.04 799.716 234.656 800.313 234.144L803.513 237.472C802.681 238.389 801.657 239.093 800.441 239.584C799.225 240.053 797.785 240.288 796.121 240.288Z"
        fill="#FBF4F4" />
    <path
        d="M618.323 611C598.933 611 582.419 623.098 576.342 640H558.947C542.572 640 529.259 653.005 529.259 669V814C529.259 829.995 542.572 843 558.947 843H677.699C694.074 843 707.387 829.995 707.387 814V669C707.387 653.005 694.074 640 677.699 640H660.304C654.227 623.098 637.713 611 618.323 611ZM618.323 640C622.26 640 626.035 641.528 628.819 644.247C631.603 646.966 633.167 650.654 633.167 654.5C633.167 658.346 631.603 662.034 628.819 664.753C626.035 667.472 622.26 669 618.323 669C614.386 669 610.61 667.472 607.827 664.753C605.043 662.034 603.479 658.346 603.479 654.5C603.479 650.654 605.043 646.966 607.827 644.247C610.61 641.528 614.386 640 618.323 640ZM562.658 734.25C562.658 731.366 563.831 728.6 565.919 726.56C568.006 724.521 570.838 723.375 573.791 723.375C576.743 723.375 579.575 724.521 581.663 726.56C583.751 728.6 584.924 731.366 584.924 734.25C584.924 737.134 583.751 739.9 581.663 741.94C579.575 743.979 576.743 745.125 573.791 745.125C570.838 745.125 568.006 743.979 565.919 741.94C563.831 739.9 562.658 737.134 562.658 734.25ZM610.901 727H670.277C674.359 727 677.699 730.262 677.699 734.25C677.699 738.238 674.359 741.5 670.277 741.5H610.901C606.819 741.5 603.479 738.238 603.479 734.25C603.479 730.262 606.819 727 610.901 727ZM562.658 777.75C562.658 774.866 563.831 772.1 565.919 770.06C568.006 768.021 570.838 766.875 573.791 766.875C576.743 766.875 579.575 768.021 581.663 770.06C583.751 772.1 584.924 774.866 584.924 777.75C584.924 780.634 583.751 783.4 581.663 785.44C579.575 787.479 576.743 788.625 573.791 788.625C570.838 788.625 568.006 787.479 565.919 785.44C563.831 783.4 562.658 780.634 562.658 777.75ZM603.479 777.75C603.479 773.762 606.819 770.5 610.901 770.5H670.277C674.359 770.5 677.699 773.762 677.699 777.75C677.699 781.738 674.359 785 670.277 785H610.901C606.819 785 603.479 781.738 603.479 777.75Z"
        fill="#0047AC" />
    <path
        d="M160.499 445.787L145.747 431.377C139.195 424.977 127.958 429.512 127.958 438.54V485.203C127.958 490.84 132.6 495.375 138.371 495.375H186.142C195.427 495.375 200.069 484.398 193.518 477.998L180.154 464.944C195.21 450.237 216.036 441.125 239.032 441.125C285.024 441.125 322.338 477.574 322.338 522.5C322.338 567.426 285.024 603.875 239.032 603.875C221.33 603.875 204.929 598.492 191.435 589.295C185.144 585.015 176.509 586.498 172.084 592.644C167.658 598.789 169.22 607.223 175.511 611.546C193.561 623.795 215.472 631 239.032 631C300.383 631 350.106 582.429 350.106 522.5C350.106 462.571 300.383 414 239.032 414C208.357 414 180.588 426.164 160.499 445.787ZM239.032 468.25C233.261 468.25 228.619 472.785 228.619 478.422V522.5C228.619 525.213 229.704 527.798 231.656 529.705L262.896 560.221C266.974 564.205 273.569 564.205 277.604 560.221C281.64 556.237 281.683 549.795 277.604 545.853L249.402 518.304V478.422C249.402 472.785 244.759 468.25 238.989 468.25H239.032Z"
        fill="white" />
    <path
        d="M54.858 381V358.6H65.034C67.466 358.6 69.61 359.069 71.466 360.008C73.322 360.925 74.7726 362.216 75.818 363.88C76.8633 365.544 77.386 367.517 77.386 369.8C77.386 372.061 76.8633 374.035 75.818 375.72C74.7726 377.384 73.322 378.685 71.466 379.624C69.61 380.541 67.466 381 65.034 381H54.858ZM60.042 376.744H64.778C66.2713 376.744 67.562 376.467 68.65 375.912C69.7593 375.336 70.6126 374.525 71.21 373.48C71.8286 372.435 72.138 371.208 72.138 369.8C72.138 368.371 71.8286 367.144 71.21 366.12C70.6126 365.075 69.7593 364.275 68.65 363.72C67.562 363.144 66.2713 362.856 64.778 362.856H60.042V376.744ZM89.4875 381.256C87.5248 381.256 85.7968 380.872 84.3035 380.104C82.8315 379.336 81.6901 378.291 80.8795 376.968C80.0688 375.624 79.6635 374.099 79.6635 372.392C79.6635 370.664 80.0581 369.139 80.8475 367.816C81.6581 366.472 82.7568 365.427 84.1435 364.68C85.5301 363.912 87.0981 363.528 88.8475 363.528C90.5328 363.528 92.0475 363.891 93.3915 364.616C94.7568 365.32 95.8341 366.344 96.6235 367.688C97.4128 369.011 97.8075 370.6 97.8075 372.456C97.8075 372.648 97.7968 372.872 97.7755 373.128C97.7541 373.363 97.7328 373.587 97.7115 373.8H83.7275V370.888H95.0875L93.1675 371.752C93.1675 370.856 92.9861 370.077 92.6235 369.416C92.2608 368.755 91.7595 368.243 91.1195 367.88C90.4795 367.496 89.7328 367.304 88.8795 367.304C88.0261 367.304 87.2688 367.496 86.6075 367.88C85.9675 368.243 85.4661 368.765 85.1035 369.448C84.7408 370.109 84.5595 370.899 84.5595 371.816V372.584C84.5595 373.523 84.7621 374.355 85.1675 375.08C85.5941 375.784 86.1808 376.328 86.9275 376.712C87.6955 377.075 88.5915 377.256 89.6155 377.256C90.5328 377.256 91.3328 377.117 92.0155 376.84C92.7195 376.563 93.3595 376.147 93.9355 375.592L96.5915 378.472C95.8021 379.368 94.8101 380.061 93.6155 380.552C92.4208 381.021 91.0448 381.256 89.4875 381.256ZM85.8395 361.576L90.1595 356.968H95.5355L89.7435 361.576H85.8395ZM101.739 381V363.4C101.739 361.459 102.315 359.912 103.467 358.76C104.619 357.587 106.262 357 108.395 357C109.12 357 109.814 357.075 110.475 357.224C111.158 357.373 111.734 357.608 112.203 357.928L110.891 361.544C110.614 361.352 110.304 361.203 109.963 361.096C109.622 360.989 109.259 360.936 108.875 360.936C108.15 360.936 107.584 361.149 107.179 361.576C106.795 361.981 106.603 362.6 106.603 363.432V365.032L106.731 367.176V381H101.739ZM99.083 368.008V364.168H111.019V368.008H99.083ZM113.835 381V363.784H118.827V381H113.835ZM116.331 361.384C115.414 361.384 114.667 361.117 114.091 360.584C113.515 360.051 113.227 359.389 113.227 358.6C113.227 357.811 113.515 357.149 114.091 356.616C114.667 356.083 115.414 355.816 116.331 355.816C117.248 355.816 117.995 356.072 118.571 356.584C119.147 357.075 119.435 357.715 119.435 358.504C119.435 359.336 119.147 360.029 118.571 360.584C118.016 361.117 117.27 361.384 116.331 361.384ZM133.907 363.528C135.273 363.528 136.489 363.805 137.555 364.36C138.643 364.893 139.497 365.725 140.115 366.856C140.734 367.965 141.043 369.395 141.043 371.144V381H136.051V371.912C136.051 370.525 135.742 369.501 135.123 368.84C134.526 368.179 133.673 367.848 132.563 367.848C131.774 367.848 131.059 368.019 130.419 368.36C129.801 368.68 129.31 369.181 128.947 369.864C128.606 370.547 128.435 371.421 128.435 372.488V381H123.443V363.784H128.211V368.552L127.315 367.112C127.934 365.96 128.819 365.075 129.971 364.456C131.123 363.837 132.435 363.528 133.907 363.528ZM145.568 381V363.784H150.56V381H145.568ZM148.064 361.384C147.147 361.384 146.4 361.117 145.824 360.584C145.248 360.051 144.96 359.389 144.96 358.6C144.96 357.811 145.248 357.149 145.824 356.616C146.4 356.083 147.147 355.816 148.064 355.816C148.982 355.816 149.728 356.072 150.304 356.584C150.88 357.075 151.168 357.715 151.168 358.504C151.168 359.336 150.88 360.029 150.304 360.584C149.75 361.117 149.003 361.384 148.064 361.384ZM155.193 381V363.784H159.961V368.648L159.289 367.24C159.801 366.024 160.623 365.107 161.753 364.488C162.884 363.848 164.26 363.528 165.881 363.528V368.136C165.668 368.115 165.476 368.104 165.305 368.104C165.135 368.083 164.953 368.072 164.761 368.072C163.396 368.072 162.287 368.467 161.433 369.256C160.601 370.024 160.185 371.229 160.185 372.872V381H155.193ZM185.301 381.256C183.872 381.256 182.592 380.979 181.461 380.424C180.352 379.869 179.488 379.027 178.869 377.896C178.251 376.744 177.941 375.283 177.941 373.512V363.784H182.933V372.776C182.933 374.205 183.232 375.261 183.829 375.944C184.448 376.605 185.312 376.936 186.421 376.936C187.189 376.936 187.872 376.776 188.469 376.456C189.067 376.115 189.536 375.603 189.877 374.92C190.219 374.216 190.389 373.341 190.389 372.296V363.784H195.381V381H190.645V376.264L191.509 377.64C190.933 378.835 190.08 379.741 188.949 380.36C187.84 380.957 186.624 381.256 185.301 381.256ZM210.47 363.528C211.835 363.528 213.051 363.805 214.118 364.36C215.206 364.893 216.059 365.725 216.678 366.856C217.297 367.965 217.606 369.395 217.606 371.144V381H212.614V371.912C212.614 370.525 212.305 369.501 211.686 368.84C211.089 368.179 210.235 367.848 209.126 367.848C208.337 367.848 207.622 368.019 206.982 368.36C206.363 368.68 205.873 369.181 205.51 369.864C205.169 370.547 204.998 371.421 204.998 372.488V381H200.006V363.784H204.774V368.552L203.878 367.112C204.497 365.96 205.382 365.075 206.534 364.456C207.686 363.837 208.998 363.528 210.47 363.528ZM230.8 381.256C228.837 381.256 227.109 380.872 225.616 380.104C224.144 379.336 223.003 378.291 222.192 376.968C221.381 375.624 220.976 374.099 220.976 372.392C220.976 370.664 221.371 369.139 222.16 367.816C222.971 366.472 224.069 365.427 225.456 364.68C226.843 363.912 228.411 363.528 230.16 363.528C231.845 363.528 233.36 363.891 234.704 364.616C236.069 365.32 237.147 366.344 237.936 367.688C238.725 369.011 239.12 370.6 239.12 372.456C239.12 372.648 239.109 372.872 239.088 373.128C239.067 373.363 239.045 373.587 239.024 373.8H225.04V370.888H236.4L234.48 371.752C234.48 370.856 234.299 370.077 233.936 369.416C233.573 368.755 233.072 368.243 232.432 367.88C231.792 367.496 231.045 367.304 230.192 367.304C229.339 367.304 228.581 367.496 227.92 367.88C227.28 368.243 226.779 368.765 226.416 369.448C226.053 370.109 225.872 370.899 225.872 371.816V372.584C225.872 373.523 226.075 374.355 226.48 375.08C226.907 375.784 227.493 376.328 228.24 376.712C229.008 377.075 229.904 377.256 230.928 377.256C231.845 377.256 232.645 377.117 233.328 376.84C234.032 376.563 234.672 376.147 235.248 375.592L237.904 378.472C237.115 379.368 236.123 380.061 234.928 380.552C233.733 381.021 232.357 381.256 230.8 381.256ZM260.05 381.256C258.087 381.256 256.359 380.872 254.866 380.104C253.394 379.336 252.253 378.291 251.442 376.968C250.631 375.624 250.226 374.099 250.226 372.392C250.226 370.664 250.621 369.139 251.41 367.816C252.221 366.472 253.319 365.427 254.706 364.68C256.093 363.912 257.661 363.528 259.41 363.528C261.095 363.528 262.61 363.891 263.954 364.616C265.319 365.32 266.397 366.344 267.186 367.688C267.975 369.011 268.37 370.6 268.37 372.456C268.37 372.648 268.359 372.872 268.338 373.128C268.317 373.363 268.295 373.587 268.274 373.8H254.29V370.888H265.65L263.73 371.752C263.73 370.856 263.549 370.077 263.186 369.416C262.823 368.755 262.322 368.243 261.682 367.88C261.042 367.496 260.295 367.304 259.442 367.304C258.589 367.304 257.831 367.496 257.17 367.88C256.53 368.243 256.029 368.765 255.666 369.448C255.303 370.109 255.122 370.899 255.122 371.816V372.584C255.122 373.523 255.325 374.355 255.73 375.08C256.157 375.784 256.743 376.328 257.49 376.712C258.258 377.075 259.154 377.256 260.178 377.256C261.095 377.256 261.895 377.117 262.578 376.84C263.282 376.563 263.922 376.147 264.498 375.592L267.154 378.472C266.365 379.368 265.373 380.061 264.178 380.552C262.983 381.021 261.607 381.256 260.05 381.256ZM256.402 361.576L260.722 356.968H266.098L260.306 361.576H256.402ZM280.013 381.256C278.157 381.256 276.504 380.883 275.053 380.136C273.603 379.368 272.461 378.312 271.629 376.968C270.819 375.624 270.413 374.099 270.413 372.392C270.413 370.664 270.819 369.139 271.629 367.816C272.461 366.472 273.603 365.427 275.053 364.68C276.504 363.912 278.157 363.528 280.013 363.528C281.827 363.528 283.405 363.912 284.749 364.68C286.093 365.427 287.085 366.504 287.725 367.912L283.853 369.992C283.405 369.181 282.84 368.584 282.157 368.2C281.496 367.816 280.771 367.624 279.981 367.624C279.128 367.624 278.36 367.816 277.677 368.2C276.995 368.584 276.451 369.128 276.045 369.832C275.661 370.536 275.469 371.389 275.469 372.392C275.469 373.395 275.661 374.248 276.045 374.952C276.451 375.656 276.995 376.2 277.677 376.584C278.36 376.968 279.128 377.16 279.981 377.16C280.771 377.16 281.496 376.979 282.157 376.616C282.84 376.232 283.405 375.624 283.853 374.792L287.725 376.904C287.085 378.291 286.093 379.368 284.749 380.136C283.405 380.883 281.827 381.256 280.013 381.256ZM300.97 363.528C302.335 363.528 303.551 363.805 304.618 364.36C305.706 364.893 306.559 365.725 307.178 366.856C307.797 367.965 308.106 369.395 308.106 371.144V381H303.114V371.912C303.114 370.525 302.805 369.501 302.186 368.84C301.589 368.179 300.735 367.848 299.626 367.848C298.837 367.848 298.122 368.019 297.482 368.36C296.863 368.68 296.373 369.181 296.01 369.864C295.669 370.547 295.498 371.421 295.498 372.488V381H290.506V357.256H295.498V368.552L294.378 367.112C294.997 365.96 295.882 365.075 297.034 364.456C298.186 363.837 299.498 363.528 300.97 363.528ZM321.3 381.256C319.337 381.256 317.609 380.872 316.116 380.104C314.644 379.336 313.503 378.291 312.692 376.968C311.881 375.624 311.476 374.099 311.476 372.392C311.476 370.664 311.871 369.139 312.66 367.816C313.471 366.472 314.569 365.427 315.956 364.68C317.343 363.912 318.911 363.528 320.66 363.528C322.345 363.528 323.86 363.891 325.204 364.616C326.569 365.32 327.647 366.344 328.436 367.688C329.225 369.011 329.62 370.6 329.62 372.456C329.62 372.648 329.609 372.872 329.588 373.128C329.567 373.363 329.545 373.587 329.524 373.8H315.54V370.888H326.9L324.98 371.752C324.98 370.856 324.799 370.077 324.436 369.416C324.073 368.755 323.572 368.243 322.932 367.88C322.292 367.496 321.545 367.304 320.692 367.304C319.839 367.304 319.081 367.496 318.42 367.88C317.78 368.243 317.279 368.765 316.916 369.448C316.553 370.109 316.372 370.899 316.372 371.816V372.584C316.372 373.523 316.575 374.355 316.98 375.08C317.407 375.784 317.993 376.328 318.74 376.712C319.508 377.075 320.404 377.256 321.428 377.256C322.345 377.256 323.145 377.117 323.828 376.84C324.532 376.563 325.172 376.147 325.748 375.592L328.404 378.472C327.615 379.368 326.623 380.061 325.428 380.552C324.233 381.021 322.857 381.256 321.3 381.256ZM317.652 361.576L321.972 356.968H327.348L321.556 361.576H317.652ZM343.035 381V377.64L342.715 376.904V370.888C342.715 369.821 342.384 368.989 341.723 368.392C341.083 367.795 340.091 367.496 338.747 367.496C337.829 367.496 336.923 367.645 336.027 367.944C335.152 368.221 334.405 368.605 333.787 369.096L331.995 365.608C332.933 364.947 334.064 364.435 335.387 364.072C336.709 363.709 338.053 363.528 339.419 363.528C342.043 363.528 344.08 364.147 345.531 365.384C346.981 366.621 347.707 368.552 347.707 371.176V381H343.035ZM337.787 381.256C336.443 381.256 335.291 381.032 334.331 380.584C333.371 380.115 332.635 379.485 332.123 378.696C331.611 377.907 331.355 377.021 331.355 376.04C331.355 375.016 331.6 374.12 332.091 373.352C332.603 372.584 333.403 371.987 334.491 371.56C335.579 371.112 336.997 370.888 338.747 370.888H343.323V373.8H339.291C338.117 373.8 337.307 373.992 336.859 374.376C336.432 374.76 336.219 375.24 336.219 375.816C336.219 376.456 336.464 376.968 336.955 377.352C337.467 377.715 338.16 377.896 339.035 377.896C339.867 377.896 340.613 377.704 341.275 377.32C341.936 376.915 342.416 376.328 342.715 375.56L343.483 377.864C343.12 378.973 342.459 379.816 341.499 380.392C340.539 380.968 339.301 381.256 337.787 381.256ZM362.689 363.528C364.054 363.528 365.27 363.805 366.337 364.36C367.425 364.893 368.278 365.725 368.897 366.856C369.515 367.965 369.825 369.395 369.825 371.144V381H364.833V371.912C364.833 370.525 364.523 369.501 363.905 368.84C363.307 368.179 362.454 367.848 361.345 367.848C360.555 367.848 359.841 368.019 359.201 368.36C358.582 368.68 358.091 369.181 357.729 369.864C357.387 370.547 357.217 371.421 357.217 372.488V381H352.225V363.784H356.993V368.552L356.097 367.112C356.715 365.96 357.601 365.075 358.753 364.456C359.905 363.837 361.217 363.528 362.689 363.528ZM382.795 381.256C380.939 381.256 379.285 380.883 377.835 380.136C376.384 379.368 375.243 378.312 374.411 376.968C373.6 375.624 373.195 374.099 373.195 372.392C373.195 370.664 373.6 369.139 374.411 367.816C375.243 366.472 376.384 365.427 377.835 364.68C379.285 363.912 380.939 363.528 382.795 363.528C384.608 363.528 386.187 363.912 387.531 364.68C388.875 365.427 389.867 366.504 390.507 367.912L386.635 369.992C386.187 369.181 385.621 368.584 384.939 368.2C384.277 367.816 383.552 367.624 382.763 367.624C381.909 367.624 381.141 367.816 380.459 368.2C379.776 368.584 379.232 369.128 378.827 369.832C378.443 370.536 378.251 371.389 378.251 372.392C378.251 373.395 378.443 374.248 378.827 374.952C379.232 375.656 379.776 376.2 380.459 376.584C381.141 376.968 381.909 377.16 382.763 377.16C383.552 377.16 384.277 376.979 384.939 376.616C385.621 376.232 386.187 375.624 386.635 374.792L390.507 376.904C389.867 378.291 388.875 379.368 387.531 380.136C386.187 380.883 384.608 381.256 382.795 381.256ZM401.706 381.256C399.744 381.256 398.016 380.872 396.522 380.104C395.05 379.336 393.909 378.291 393.098 376.968C392.288 375.624 391.882 374.099 391.882 372.392C391.882 370.664 392.277 369.139 393.066 367.816C393.877 366.472 394.976 365.427 396.362 364.68C397.749 363.912 399.317 363.528 401.066 363.528C402.752 363.528 404.266 363.891 405.61 364.616C406.976 365.32 408.053 366.344 408.842 367.688C409.632 369.011 410.026 370.6 410.026 372.456C410.026 372.648 410.016 372.872 409.994 373.128C409.973 373.363 409.952 373.587 409.93 373.8H395.946V370.888H407.306L405.386 371.752C405.386 370.856 405.205 370.077 404.842 369.416C404.48 368.755 403.978 368.243 403.338 367.88C402.698 367.496 401.952 367.304 401.098 367.304C400.245 367.304 399.488 367.496 398.826 367.88C398.186 368.243 397.685 368.765 397.322 369.448C396.96 370.109 396.778 370.899 396.778 371.816V372.584C396.778 373.523 396.981 374.355 397.386 375.08C397.813 375.784 398.4 376.328 399.146 376.712C399.914 377.075 400.81 377.256 401.834 377.256C402.752 377.256 403.552 377.117 404.234 376.84C404.938 376.563 405.578 376.147 406.154 375.592L408.81 378.472C408.021 379.368 407.029 380.061 405.834 380.552C404.64 381.021 403.264 381.256 401.706 381.256Z"
        fill="black" />
    <path
        d="M453.695 575V552.6H463.935C465.983 552.6 467.743 552.931 469.215 553.592C470.709 554.253 471.861 555.213 472.671 556.472C473.482 557.709 473.887 559.181 473.887 560.888C473.887 562.573 473.482 564.035 472.671 565.272C471.861 566.488 470.709 567.427 469.215 568.088C467.743 568.728 465.983 569.048 463.935 569.048H457.215L460.031 566.392V575H453.695ZM467.551 575L461.983 566.84H468.735L474.335 575H467.551ZM460.031 567.064L457.215 564.152H463.551C464.874 564.152 465.855 563.864 466.495 563.288C467.157 562.712 467.487 561.912 467.487 560.888C467.487 559.843 467.157 559.032 466.495 558.456C465.855 557.88 464.874 557.592 463.551 557.592H457.215L460.031 554.68V567.064ZM486.183 575.288C484.135 575.288 482.343 574.904 480.807 574.136C479.292 573.347 478.108 572.28 477.255 570.936C476.423 569.571 476.007 568.024 476.007 566.296C476.007 564.568 476.412 563.032 477.223 561.688C478.055 560.323 479.196 559.267 480.647 558.52C482.098 557.752 483.73 557.368 485.543 557.368C487.25 557.368 488.807 557.72 490.215 558.424C491.623 559.107 492.743 560.12 493.575 561.464C494.407 562.808 494.823 564.44 494.823 566.36C494.823 566.573 494.812 566.819 494.791 567.096C494.77 567.373 494.748 567.629 494.727 567.864H480.999V564.664H491.495L489.191 565.56C489.212 564.771 489.063 564.088 488.743 563.512C488.444 562.936 488.018 562.488 487.463 562.168C486.93 561.848 486.3 561.688 485.575 561.688C484.85 561.688 484.21 561.848 483.655 562.168C483.122 562.488 482.706 562.947 482.407 563.544C482.108 564.12 481.959 564.803 481.959 565.592V566.52C481.959 567.373 482.13 568.109 482.471 568.728C482.834 569.347 483.346 569.827 484.007 570.168C484.668 570.488 485.458 570.648 486.375 570.648C487.228 570.648 487.954 570.531 488.551 570.296C489.17 570.04 489.778 569.656 490.375 569.144L493.575 572.472C492.743 573.389 491.719 574.093 490.503 574.584C489.287 575.053 487.847 575.288 486.183 575.288ZM506.49 575.288C504.57 575.288 502.853 574.904 501.338 574.136C499.845 573.368 498.672 572.312 497.818 570.968C496.965 569.603 496.538 568.045 496.538 566.296C496.538 564.547 496.965 563 497.818 561.656C498.672 560.312 499.845 559.267 501.338 558.52C502.853 557.752 504.57 557.368 506.49 557.368C508.453 557.368 510.149 557.784 511.578 558.616C513.008 559.448 514.021 560.621 514.618 562.136L509.914 564.536C509.509 563.725 509.008 563.139 508.41 562.776C507.813 562.392 507.162 562.2 506.458 562.2C505.754 562.2 505.114 562.36 504.538 562.68C503.962 563 503.504 563.469 503.162 564.088C502.842 564.685 502.682 565.421 502.682 566.296C502.682 567.192 502.842 567.949 503.162 568.568C503.504 569.187 503.962 569.656 504.538 569.976C505.114 570.296 505.754 570.456 506.458 570.456C507.162 570.456 507.813 570.275 508.41 569.912C509.008 569.528 509.509 568.931 509.914 568.12L514.618 570.52C514.021 572.035 513.008 573.208 511.578 574.04C510.149 574.872 508.453 575.288 506.49 575.288ZM525.808 575.288C523.76 575.288 521.968 574.904 520.432 574.136C518.917 573.347 517.733 572.28 516.88 570.936C516.048 569.571 515.632 568.024 515.632 566.296C515.632 564.568 516.037 563.032 516.848 561.688C517.68 560.323 518.821 559.267 520.272 558.52C521.723 557.752 523.355 557.368 525.168 557.368C526.875 557.368 528.432 557.72 529.84 558.424C531.248 559.107 532.368 560.12 533.2 561.464C534.032 562.808 534.448 564.44 534.448 566.36C534.448 566.573 534.437 566.819 534.416 567.096C534.395 567.373 534.373 567.629 534.352 567.864H520.624V564.664H531.12L528.816 565.56C528.837 564.771 528.688 564.088 528.368 563.512C528.069 562.936 527.643 562.488 527.088 562.168C526.555 561.848 525.925 561.688 525.2 561.688C524.475 561.688 523.835 561.848 523.28 562.168C522.747 562.488 522.331 562.947 522.032 563.544C521.733 564.12 521.584 564.803 521.584 565.592V566.52C521.584 567.373 521.755 568.109 522.096 568.728C522.459 569.347 522.971 569.827 523.632 570.168C524.293 570.488 525.083 570.648 526 570.648C526.853 570.648 527.579 570.531 528.176 570.296C528.795 570.04 529.403 569.656 530 569.144L533.2 572.472C532.368 573.389 531.344 574.093 530.128 574.584C528.912 575.053 527.472 575.288 525.808 575.288ZM541.771 575L534.635 557.656H540.875L546.571 572.152H543.435L549.419 557.656H555.211L548.043 575H541.771ZM565.018 575.288C563.119 575.288 561.434 574.904 559.962 574.136C558.49 573.368 557.327 572.312 556.474 570.968C555.642 569.603 555.226 568.045 555.226 566.296C555.226 564.547 555.642 563 556.474 561.656C557.327 560.312 558.49 559.267 559.962 558.52C561.434 557.752 563.119 557.368 565.018 557.368C566.916 557.368 568.602 557.752 570.074 558.52C571.567 559.267 572.73 560.312 573.562 561.656C574.394 563 574.81 564.547 574.81 566.296C574.81 568.045 574.394 569.603 573.562 570.968C572.73 572.312 571.567 573.368 570.074 574.136C568.602 574.904 566.916 575.288 565.018 575.288ZM565.018 570.456C565.722 570.456 566.34 570.296 566.874 569.976C567.428 569.656 567.866 569.187 568.186 568.568C568.506 567.928 568.666 567.171 568.666 566.296C568.666 565.421 568.506 564.685 568.186 564.088C567.866 563.469 567.428 563 566.874 562.68C566.34 562.36 565.722 562.2 565.018 562.2C564.335 562.2 563.716 562.36 563.162 562.68C562.628 563 562.191 563.469 561.85 564.088C561.53 564.685 561.37 565.421 561.37 566.296C561.37 567.171 561.53 567.928 561.85 568.568C562.191 569.187 562.628 569.656 563.162 569.976C563.716 570.296 564.335 570.456 565.018 570.456ZM577.626 575V557.656H583.706V575H577.626ZM580.666 555.736C579.557 555.736 578.661 555.427 577.978 554.808C577.296 554.189 576.954 553.421 576.954 552.504C576.954 551.587 577.296 550.819 577.978 550.2C578.661 549.581 579.557 549.272 580.666 549.272C581.776 549.272 582.672 549.571 583.354 550.168C584.037 550.744 584.378 551.491 584.378 552.408C584.378 553.368 584.037 554.168 583.354 554.808C582.693 555.427 581.797 555.736 580.666 555.736ZM587.657 575V557.656H593.449V562.712L592.585 561.272C593.097 559.971 593.929 559 595.081 558.36C596.233 557.699 597.631 557.368 599.273 557.368V562.84C598.996 562.797 598.751 562.776 598.537 562.776C598.345 562.755 598.132 562.744 597.897 562.744C596.66 562.744 595.657 563.085 594.889 563.768C594.121 564.429 593.737 565.517 593.737 567.032V575H587.657ZM618.709 575.288C617.131 575.288 615.691 574.925 614.389 574.2C613.109 573.453 612.085 572.419 611.317 571.096C610.549 569.752 610.165 568.152 610.165 566.296C610.165 564.461 610.549 562.883 611.317 561.56C612.085 560.216 613.109 559.181 614.389 558.456C615.691 557.731 617.131 557.368 618.709 557.368C620.203 557.368 621.461 557.688 622.485 558.328C623.531 558.968 624.32 559.949 624.853 561.272C625.387 562.595 625.653 564.269 625.653 566.296C625.653 568.365 625.397 570.061 624.885 571.384C624.373 572.707 623.605 573.688 622.581 574.328C621.557 574.968 620.267 575.288 618.709 575.288ZM619.989 570.456C620.672 570.456 621.28 570.296 621.813 569.976C622.368 569.656 622.805 569.187 623.125 568.568C623.445 567.928 623.605 567.171 623.605 566.296C623.605 565.421 623.445 564.685 623.125 564.088C622.805 563.469 622.368 563 621.813 562.68C621.28 562.36 620.672 562.2 619.989 562.2C619.285 562.2 618.656 562.36 618.101 562.68C617.568 563 617.141 563.469 616.821 564.088C616.501 564.685 616.341 565.421 616.341 566.296C616.341 567.171 616.501 567.928 616.821 568.568C617.141 569.187 617.568 569.656 618.101 569.976C618.656 570.296 619.285 570.456 619.989 570.456ZM623.797 575V572.024L623.829 566.296L623.509 560.568V551.256H629.589V575H623.797ZM642.589 575.288C640.541 575.288 638.749 574.904 637.213 574.136C635.699 573.347 634.515 572.28 633.661 570.936C632.829 569.571 632.413 568.024 632.413 566.296C632.413 564.568 632.819 563.032 633.629 561.688C634.461 560.323 635.603 559.267 637.053 558.52C638.504 557.752 640.136 557.368 641.949 557.368C643.656 557.368 645.213 557.72 646.621 558.424C648.029 559.107 649.149 560.12 649.981 561.464C650.813 562.808 651.229 564.44 651.229 566.36C651.229 566.573 651.219 566.819 651.197 567.096C651.176 567.373 651.155 567.629 651.133 567.864H637.405V564.664H647.901L645.597 565.56C645.619 564.771 645.469 564.088 645.149 563.512C644.851 562.936 644.424 562.488 643.869 562.168C643.336 561.848 642.707 561.688 641.981 561.688C641.256 561.688 640.616 561.848 640.061 562.168C639.528 562.488 639.112 562.947 638.813 563.544C638.515 564.12 638.365 564.803 638.365 565.592V566.52C638.365 567.373 638.536 568.109 638.877 568.728C639.24 569.347 639.752 569.827 640.413 570.168C641.075 570.488 641.864 570.648 642.781 570.648C643.635 570.648 644.36 570.531 644.957 570.296C645.576 570.04 646.184 569.656 646.781 569.144L649.981 572.472C649.149 573.389 648.125 574.093 646.909 574.584C645.693 575.053 644.253 575.288 642.589 575.288ZM660.336 575.288C658.864 575.288 657.424 575.117 656.016 574.776C654.63 574.435 653.51 574.008 652.656 573.496L654.48 569.336C655.291 569.827 656.24 570.221 657.328 570.52C658.416 570.797 659.483 570.936 660.528 570.936C661.552 570.936 662.256 570.829 662.64 570.616C663.046 570.403 663.248 570.115 663.248 569.752C663.248 569.411 663.056 569.165 662.672 569.016C662.31 568.845 661.819 568.717 661.2 568.632C660.603 568.547 659.942 568.451 659.216 568.344C658.491 568.237 657.755 568.099 657.008 567.928C656.283 567.736 655.611 567.459 654.992 567.096C654.395 566.712 653.915 566.2 653.552 565.56C653.19 564.92 653.008 564.109 653.008 563.128C653.008 562.019 653.328 561.037 653.968 560.184C654.63 559.309 655.59 558.627 656.848 558.136C658.107 557.624 659.643 557.368 661.456 557.368C662.672 557.368 663.899 557.496 665.136 557.752C666.395 557.987 667.451 558.349 668.304 558.84L666.48 562.968C665.627 562.477 664.774 562.147 663.92 561.976C663.067 561.784 662.256 561.688 661.488 561.688C660.464 561.688 659.739 561.805 659.312 562.04C658.907 562.275 658.704 562.563 658.704 562.904C658.704 563.245 658.886 563.512 659.248 563.704C659.611 563.875 660.091 564.013 660.688 564.12C661.307 564.205 661.979 564.301 662.704 564.408C663.43 564.493 664.155 564.632 664.88 564.824C665.627 565.016 666.299 565.304 666.896 565.688C667.515 566.051 668.006 566.552 668.368 567.192C668.731 567.811 668.912 568.611 668.912 569.592C668.912 570.659 668.582 571.619 667.92 572.472C667.28 573.325 666.32 574.008 665.04 574.52C663.782 575.032 662.214 575.288 660.336 575.288ZM680.845 575V557.656H686.637V562.712L685.773 561.272C686.285 559.971 687.117 559 688.269 558.36C689.421 557.699 690.818 557.368 692.461 557.368V562.84C692.184 562.797 691.938 562.776 691.725 562.776C691.533 562.755 691.32 562.744 691.085 562.744C689.848 562.744 688.845 563.085 688.077 563.768C687.309 564.429 686.925 565.517 686.925 567.032V575H680.845ZM704.531 575V571.768L704.115 570.968V565.016C704.115 564.056 703.816 563.32 703.219 562.808C702.643 562.275 701.715 562.008 700.435 562.008C699.603 562.008 698.76 562.147 697.907 562.424C697.053 562.68 696.328 563.043 695.731 563.512L693.683 559.384C694.664 558.744 695.837 558.253 697.203 557.912C698.589 557.549 699.965 557.368 701.331 557.368C704.147 557.368 706.323 558.019 707.859 559.32C709.416 560.6 710.195 562.616 710.195 565.368V575H704.531ZM699.411 575.288C698.024 575.288 696.851 575.053 695.891 574.584C694.931 574.115 694.195 573.475 693.683 572.664C693.192 571.853 692.947 570.947 692.947 569.944C692.947 568.877 693.213 567.96 693.747 567.192C694.301 566.403 695.144 565.805 696.275 565.4C697.405 564.973 698.867 564.76 700.659 564.76H704.755V567.928H701.491C700.509 567.928 699.816 568.088 699.411 568.408C699.027 568.728 698.835 569.155 698.835 569.688C698.835 570.221 699.037 570.648 699.443 570.968C699.848 571.288 700.403 571.448 701.107 571.448C701.768 571.448 702.365 571.288 702.899 570.968C703.453 570.627 703.859 570.115 704.115 569.432L704.947 571.672C704.627 572.867 703.997 573.773 703.059 574.392C702.141 574.989 700.925 575.288 699.411 575.288ZM724.944 575.288C723.472 575.288 722.214 574.968 721.168 574.328C720.123 573.667 719.323 572.685 718.768 571.384C718.235 570.061 717.968 568.376 717.968 566.328C717.968 564.259 718.224 562.573 718.736 561.272C719.248 559.949 720.016 558.968 721.04 558.328C722.086 557.688 723.387 557.368 724.944 557.368C726.523 557.368 727.952 557.741 729.232 558.488C730.534 559.213 731.558 560.248 732.304 561.592C733.072 562.915 733.456 564.493 733.456 566.328C733.456 568.163 733.072 569.752 732.304 571.096C731.558 572.44 730.534 573.475 729.232 574.2C727.952 574.925 726.523 575.288 724.944 575.288ZM714.032 581.208V557.656H719.824V560.6L719.792 566.328L720.112 572.088V581.208H714.032ZM723.664 570.456C724.347 570.456 724.955 570.296 725.488 569.976C726.043 569.656 726.48 569.187 726.8 568.568C727.142 567.949 727.312 567.203 727.312 566.328C727.312 565.453 727.142 564.707 726.8 564.088C726.48 563.469 726.043 563 725.488 562.68C724.955 562.36 724.347 562.2 723.664 562.2C722.982 562.2 722.363 562.36 721.808 562.68C721.275 563 720.838 563.469 720.496 564.088C720.176 564.707 720.016 565.453 720.016 566.328C720.016 567.203 720.176 567.949 720.496 568.568C720.838 569.187 721.275 569.656 721.808 569.976C722.363 570.296 722.982 570.456 723.664 570.456ZM747.194 575.288C745.722 575.288 744.464 574.968 743.418 574.328C742.373 573.667 741.573 572.685 741.018 571.384C740.485 570.061 740.218 568.376 740.218 566.328C740.218 564.259 740.474 562.573 740.986 561.272C741.498 559.949 742.266 558.968 743.29 558.328C744.336 557.688 745.637 557.368 747.194 557.368C748.773 557.368 750.202 557.741 751.482 558.488C752.784 559.213 753.808 560.248 754.554 561.592C755.322 562.915 755.706 564.493 755.706 566.328C755.706 568.163 755.322 569.752 754.554 571.096C753.808 572.44 752.784 573.475 751.482 574.2C750.202 574.925 748.773 575.288 747.194 575.288ZM736.282 581.208V557.656H742.074V560.6L742.042 566.328L742.362 572.088V581.208H736.282ZM745.914 570.456C746.597 570.456 747.205 570.296 747.738 569.976C748.293 569.656 748.73 569.187 749.05 568.568C749.392 567.949 749.562 567.203 749.562 566.328C749.562 565.453 749.392 564.707 749.05 564.088C748.73 563.469 748.293 563 747.738 562.68C747.205 562.36 746.597 562.2 745.914 562.2C745.232 562.2 744.613 562.36 744.058 562.68C743.525 563 743.088 563.469 742.746 564.088C742.426 564.707 742.266 565.453 742.266 566.328C742.266 567.203 742.426 567.949 742.746 568.568C743.088 569.187 743.525 569.656 744.058 569.976C744.613 570.296 745.232 570.456 745.914 570.456ZM767.62 575.288C765.572 575.288 763.78 574.904 762.244 574.136C760.73 573.347 759.546 572.28 758.692 570.936C757.86 569.571 757.444 568.024 757.444 566.296C757.444 564.568 757.85 563.032 758.66 561.688C759.492 560.323 760.634 559.267 762.084 558.52C763.535 557.752 765.167 557.368 766.98 557.368C768.687 557.368 770.244 557.72 771.652 558.424C773.06 559.107 774.18 560.12 775.012 561.464C775.844 562.808 776.26 564.44 776.26 566.36C776.26 566.573 776.25 566.819 776.228 567.096C776.207 567.373 776.186 567.629 776.164 567.864H762.436V564.664H772.932L770.628 565.56C770.65 564.771 770.5 564.088 770.18 563.512C769.882 562.936 769.455 562.488 768.9 562.168C768.367 561.848 767.738 561.688 767.012 561.688C766.287 561.688 765.647 561.848 765.092 562.168C764.559 562.488 764.143 562.947 763.844 563.544C763.546 564.12 763.396 564.803 763.396 565.592V566.52C763.396 567.373 763.567 568.109 763.908 568.728C764.271 569.347 764.783 569.827 765.444 570.168C766.106 570.488 766.895 570.648 767.812 570.648C768.666 570.648 769.391 570.531 769.988 570.296C770.607 570.04 771.215 569.656 771.812 569.144L775.012 572.472C774.18 573.389 773.156 574.093 771.94 574.584C770.724 575.053 769.284 575.288 767.62 575.288ZM779.064 575V551.256H785.144V575H779.064ZM795.399 575.288C793.927 575.288 792.487 575.117 791.079 574.776C789.692 574.435 788.572 574.008 787.719 573.496L789.543 569.336C790.354 569.827 791.303 570.221 792.391 570.52C793.479 570.797 794.546 570.936 795.591 570.936C796.615 570.936 797.319 570.829 797.703 570.616C798.108 570.403 798.311 570.115 798.311 569.752C798.311 569.411 798.119 569.165 797.735 569.016C797.372 568.845 796.882 568.717 796.263 568.632C795.666 568.547 795.004 568.451 794.279 568.344C793.554 568.237 792.818 568.099 792.071 567.928C791.346 567.736 790.674 567.459 790.055 567.096C789.458 566.712 788.978 566.2 788.615 565.56C788.252 564.92 788.071 564.109 788.071 563.128C788.071 562.019 788.391 561.037 789.031 560.184C789.692 559.309 790.652 558.627 791.911 558.136C793.17 557.624 794.706 557.368 796.519 557.368C797.735 557.368 798.962 557.496 800.199 557.752C801.458 557.987 802.514 558.349 803.367 558.84L801.543 562.968C800.69 562.477 799.836 562.147 798.983 561.976C798.13 561.784 797.319 561.688 796.551 561.688C795.527 561.688 794.802 561.805 794.375 562.04C793.97 562.275 793.767 562.563 793.767 562.904C793.767 563.245 793.948 563.512 794.311 563.704C794.674 563.875 795.154 564.013 795.751 564.12C796.37 564.205 797.042 564.301 797.767 564.408C798.492 564.493 799.218 564.632 799.943 564.824C800.69 565.016 801.362 565.304 801.959 565.688C802.578 566.051 803.068 566.552 803.431 567.192C803.794 567.811 803.975 568.611 803.975 569.592C803.975 570.659 803.644 571.619 802.983 572.472C802.343 573.325 801.383 574.008 800.103 574.52C798.844 575.032 797.276 575.288 795.399 575.288Z"
        fill="white" />
    <defs>
        <radialGradient id="paint0_radial_59_6" cx="0" cy="0" r="1" gradientUnits="userSpaceOnUse"
            gradientTransform="translate(528.747 544.5) rotate(90) scale(421.5 476.545)">
            <stop offset="0.562114" stop-color="#FBF4F4" stop-opacity="0.59" />
            <stop offset="1" stop-color="#FBF4F4" stop-opacity="0" />
        </radialGradient>
        <radialGradient id="paint1_radial_59_6" cx="0" cy="0" r="1" gradientUnits="userSpaceOnUse"
            gradientTransform="translate(602.455 421.5) rotate(90) scale(421.5 476.545)">
            <stop offset="0.562114" stop-color="#FBF4F4" stop-opacity="0.59" />
            <stop offset="1" stop-color="#FBF4F4" stop-opacity="0" />
        </radialGradient>
    </defs>
</svg>