<svg width="894" height="927" viewBox="0 0 894 927" fill="none" xmlns="http://www.w3.org/2000/svg">
<ellipse cx="356.5" cy="544.5" rx="465.5" ry="421.5" fill="url(#paint0_radial_10_41)"/>
<ellipse cx="428.5" cy="421.5" rx="465.5" ry="421.5" fill="url(#paint1_radial_10_41)"/>
<path d="M248.547 175.525C257.692 186.184 258.431 204.267 250.209 216.123L183.7 311.928C179.636 317.797 173.909 321.269 167.812 321.389C161.715 321.509 155.896 318.515 151.554 313.006L114.512 265.103C105.922 253.846 105.922 235.643 114.512 224.386C123.103 213.129 137.236 213.129 145.827 224.386L166.242 250.852L217.14 177.561C225.361 165.705 239.309 164.747 248.454 175.405L248.547 175.525ZM248.547 367.136C257.692 377.795 258.431 395.878 250.209 407.734L183.7 503.54C179.636 509.408 173.909 512.881 167.812 513C161.715 513.12 155.896 510.126 151.554 504.617L114.512 456.715C105.829 445.458 105.829 427.254 114.512 416.117C123.195 404.98 137.236 404.86 145.827 416.117L166.242 442.583L217.14 369.292C225.361 357.436 239.309 356.478 248.454 367.136H248.547ZM314.963 244.745C314.963 223.548 328.173 206.422 344.523 206.422H551.44C567.791 206.422 581 223.548 581 244.745C581 265.942 567.791 283.067 551.44 283.067H344.523C328.173 283.067 314.963 265.942 314.963 244.745ZM314.963 436.356C314.963 415.159 328.173 398.034 344.523 398.034H551.44C567.791 398.034 581 415.159 581 436.356C581 457.553 567.791 474.678 551.44 474.678H344.523C328.173 474.678 314.963 457.553 314.963 436.356ZM255.844 627.967C255.844 606.77 269.054 589.645 285.404 589.645H551.44C567.791 589.645 581 606.77 581 627.967C581 649.164 567.791 666.29 551.44 666.29H285.404C269.054 666.29 255.844 649.164 255.844 627.967ZM152.386 570.484C164.145 570.484 175.423 576.54 183.738 587.32C192.054 598.101 196.725 612.722 196.725 627.967C196.725 643.213 192.054 657.834 183.738 668.614C175.423 679.394 164.145 685.451 152.386 685.451C140.626 685.451 129.348 679.394 121.033 668.614C112.718 657.834 108.046 643.213 108.046 627.967C108.046 612.722 112.718 598.101 121.033 587.32C129.348 576.54 140.626 570.484 152.386 570.484Z" fill="#007FC8"/>
<path d="M248.547 273.611C257.692 284.363 258.431 302.606 250.209 314.566L183.7 411.216C179.636 417.136 173.909 420.639 167.812 420.76C161.715 420.881 155.896 417.86 151.554 412.303L114.512 363.978C105.922 352.622 105.922 334.258 114.512 322.902C123.103 311.546 137.236 311.546 145.827 322.902L166.242 349.602L217.14 275.665C225.361 263.704 239.309 262.738 248.454 273.49L248.547 273.611ZM248.547 466.91C257.692 477.662 258.431 495.905 250.209 507.866L183.7 604.515C179.636 610.435 173.909 613.939 167.812 614.059C161.715 614.18 155.896 611.16 151.554 605.603L114.512 557.278C105.829 545.921 105.829 527.558 114.512 516.322C123.195 505.087 137.236 504.966 145.827 516.322L166.242 543.022L217.14 469.085C225.361 457.124 239.309 456.158 248.454 466.91H248.547ZM314.963 343.44C314.963 322.056 328.173 304.78 344.523 304.78H551.44C567.791 304.78 581 322.056 581 343.44C581 364.824 567.791 382.1 551.44 382.1H344.523C328.173 382.1 314.963 364.824 314.963 343.44ZM314.963 536.74C314.963 515.356 328.173 498.08 344.523 498.08H551.44C567.791 498.08 581 515.356 581 536.74C581 558.123 567.791 575.4 551.44 575.4H344.523C328.173 575.4 314.963 558.123 314.963 536.74ZM255.844 730.039C255.844 708.655 269.054 691.379 285.404 691.379H551.44C567.791 691.379 581 708.655 581 730.039C581 751.423 567.791 768.699 551.44 768.699H285.404C269.054 768.699 255.844 751.423 255.844 730.039ZM152.386 672.049C164.145 672.049 175.423 678.159 183.738 689.034C192.054 699.909 196.725 714.659 196.725 730.039C196.725 745.419 192.054 760.169 183.738 771.044C175.423 781.919 164.145 788.029 152.386 788.029C140.626 788.029 129.348 781.919 121.033 771.044C112.718 760.169 108.046 745.419 108.046 730.039C108.046 714.659 112.718 699.909 121.033 689.034C129.348 678.159 140.626 672.049 152.386 672.049Z" fill="#FFD301"/>
<defs>
<radialGradient id="paint0_radial_10_41" cx="0" cy="0" r="1" gradientUnits="userSpaceOnUse" gradientTransform="translate(356.5 544.5) rotate(90) scale(421.5 465.5)">
<stop offset="0.562114" stop-color="#FBF4F4" stop-opacity="0.59"/>
<stop offset="1" stop-color="#FBF4F4" stop-opacity="0"/>
</radialGradient>
<radialGradient id="paint1_radial_10_41" cx="0" cy="0" r="1" gradientUnits="userSpaceOnUse" gradientTransform="translate(428.5 421.5) rotate(90) scale(421.5 465.5)">
<stop offset="0.562114" stop-color="#FBF4F4" stop-opacity="0.59"/>
<stop offset="1" stop-color="#FBF4F4" stop-opacity="0"/>
</radialGradient>
</defs>
</svg>
